<svg width="1024" height="1024" viewBox="0 0 1024 1024" fill="none" xmlns="http://www.w3.org/2000/svg">
<g clip-path="url(#clip0)">
<path fill-rule="evenodd" clip-rule="evenodd" d="M1036 63H955.264V380.561H1036V63ZM449.319 960.514C690.844 960.514 886.639 764.719 886.639 523.194C886.639 459.955 873.216 399.851 849.063 345.576H949.882V85.8752H449.424L449.319 85.8752L449.215 85.8752H445.283V85.8934C205.617 88.0606 12 283.017 12 523.194C12 764.719 207.795 960.514 449.319 960.514ZM449.319 692.74C544.443 692.74 621.556 616.531 621.556 522.522C621.556 428.513 544.443 352.304 449.319 352.304C354.196 352.304 277.083 428.513 277.083 522.522C277.083 616.531 354.196 692.74 449.319 692.74Z" fill="url(#paint0_linear)"/>
</g>
<defs>
<linearGradient id="paint0_linear" x1="28.1471" y1="57.6177" x2="1166.52" y2="861.613" gradientUnits="userSpaceOnUse">
<stop stop-color="#A556C5"/>
<stop offset="1" stop-color="#A556C5" stop-opacity="0.53"/>
</linearGradient>
<clipPath id="clip0">
<rect width="1024" height="1024" fill="white"/>
</clipPath>
</defs>
</svg>
