<svg width="3497" height="1024" viewBox="0 0 3497 1024" fill="none" xmlns="http://www.w3.org/2000/svg">
<path fill-rule="evenodd" clip-rule="evenodd" d="M1036 63H955.264V380.561H1036V63ZM449.319 960.514C690.844 960.514 886.639 764.719 886.639 523.194C886.639 459.955 873.216 399.851 849.063 345.576H949.882V85.8752H449.424L449.319 85.8752L449.215 85.8752H445.283V85.8934C205.617 88.0606 12 283.017 12 523.194C12 764.719 207.795 960.514 449.319 960.514ZM449.319 692.74C544.443 692.74 621.556 616.531 621.556 522.522C621.556 428.513 544.443 352.304 449.319 352.304C354.196 352.304 277.083 428.513 277.083 522.522C277.083 616.531 354.196 692.74 449.319 692.74Z" fill="url(#paint0_linear)"/>
<g filter="url(#filter0_d)">
<path fill-rule="evenodd" clip-rule="evenodd" d="M685 220.82V349.13C685 353.83 690.06 356.18 700.181 356.18C703.593 356.18 705.594 355.769 706.182 354.946C706.888 354.124 707.241 352.068 707.241 348.777V303.305C713.125 303.305 717.538 303.188 720.48 302.953L740.603 349.482C742.604 353.947 749.312 356.18 760.726 356.18C764.257 356.18 766.257 355.651 766.728 354.594C766.963 354.359 767.081 353.83 767.081 353.008C767.081 352.068 766.434 350.129 765.139 347.191L742.898 296.96C753.96 290.38 759.491 277.22 759.491 257.48C759.491 243.38 756.372 233.275 750.135 227.165C743.898 221.055 732.601 218 716.244 218C707.418 218 697.003 218.94 685 220.82ZM729.13 275.281C725.835 277.866 719.48 279.159 710.066 279.159C709.36 279.159 708.712 279.1 708.124 278.982C707.536 278.865 707.241 278.042 707.241 276.515V243.027C707.241 241.03 708.124 239.855 709.889 239.502C711.772 239.15 716.891 238.974 725.246 238.974C727.482 238.974 729.483 240.619 731.248 243.909C733.131 247.199 734.072 251.664 734.072 257.304C734.072 266.586 732.425 272.579 729.13 275.281ZM784.773 345.958C789.715 352.773 798.483 356.18 811.074 356.18C827.667 356.18 838.376 355.24 843.201 353.36C845.083 352.89 846.025 350.481 846.025 346.134C846.025 341.786 845.731 339.025 845.142 337.85C844.672 336.675 844.024 336.205 843.201 336.44C843.083 336.44 842.906 336.499 842.671 336.616C837.022 338.144 826.49 338.908 811.074 338.908C808.721 338.908 807.014 338.438 805.955 337.498C804.19 335.618 803.19 327.804 802.954 314.056H830.138C834.022 314.056 837.317 313.763 840.023 313.175C842.848 312.588 844.26 311.941 844.26 311.236V309.121C844.26 296.784 843.201 287.266 841.082 280.569C838.964 273.871 835.61 269.289 831.021 266.821C826.549 264.354 819.9 263.12 811.074 263.12C802.248 263.12 795.541 264.354 790.951 266.821C786.479 269.171 783.125 273.695 780.89 280.392C778.654 286.973 777.536 296.607 777.536 309.298C777.536 326.923 779.948 339.143 784.773 345.958ZM802.954 299.956V286.209C802.954 284.094 804.249 282.449 806.838 281.274C809.427 280.099 812.722 279.511 816.723 279.511C818.959 279.511 820.312 286.326 820.783 299.956H802.954ZM899.528 347.896C893.409 353.419 887.937 356.18 883.112 356.18C878.405 356.18 874.58 355.828 871.638 355.123C868.696 354.535 866.048 353.184 863.695 351.069C861.341 348.836 859.694 345.664 858.752 341.551C857.811 337.439 857.34 331.975 857.34 325.16C857.34 315.643 861.988 309.121 871.285 305.596L896.527 299.075C896.409 291.437 895.645 286.502 894.232 284.27C892.82 282.037 889.761 280.921 885.053 280.921C880.346 280.921 876.286 281.685 872.874 283.212L866.696 285.68H866.519C865.46 286.268 864.518 285.798 863.695 284.27C861.576 279.805 860.517 276.339 860.517 273.871C860.517 271.286 860.694 269.876 861.047 269.641C861.518 269.289 861.753 269.054 861.753 268.936C867.637 265.059 875.227 263.12 884.524 263.12C893.938 263.12 901.175 264.354 906.236 266.821C911.296 269.289 914.944 273.812 917.18 280.392C919.533 286.855 920.71 296.49 920.71 309.298L920.357 353.36C920.357 354.065 920.239 354.535 920.004 354.77C919.533 355.71 917.297 356.18 913.296 356.18C906 356.18 902.352 355.24 902.352 353.36L899.528 347.896ZM876.934 325.513C876.934 333.973 879.405 338.438 884.347 338.908C887.76 338.908 890.231 338.32 891.761 337.145C895.056 334.912 896.704 326.57 896.704 312.118C890.584 312.94 885.76 314.644 882.229 317.229C878.699 319.696 876.934 322.458 876.934 325.513ZM994.596 272.461C994.596 270.699 994.184 269.583 993.36 269.113H993.183C987.888 265.118 980.415 263.12 970.766 263.12C961.116 263.12 953.761 264.354 948.701 266.821C943.641 269.289 939.934 273.812 937.58 280.392C935.344 286.855 934.226 296.49 934.226 309.298C934.226 327.04 936.815 339.319 941.993 346.134C947.289 352.831 957.056 356.18 971.295 356.18C978.356 356.18 985.534 355.24 992.83 353.36C994.713 352.89 995.655 350.481 995.655 346.134C995.655 341.786 995.361 339.025 994.772 337.85C994.301 336.675 993.654 336.205 992.83 336.44C992.713 336.44 990.712 336.851 986.829 337.674C982.945 338.496 977.532 338.908 970.589 338.908C965.764 338.908 962.469 336.969 960.704 333.091C959.057 329.096 958.233 321.4 958.233 310.003C958.233 298.605 958.88 290.909 960.174 286.914C961.587 282.919 964.705 280.921 969.53 280.921C974.473 280.921 978.65 281.685 982.063 283.212L988.241 285.68H988.417C990.183 286.503 991.83 284.329 993.36 279.159C994.184 276.339 994.596 274.106 994.596 272.461ZM1016.86 280.04H1002.74C1001.33 280.04 1000.56 279.746 1000.44 279.159C1000.21 278.454 1000.09 277.69 1000.09 276.867C1000.09 271.815 1000.97 269.112 1002.74 268.76L1016.86 265.94L1026.75 246.024C1028.16 244.261 1030.86 243.38 1034.87 243.38C1035.92 243.38 1036.92 245.495 1037.87 249.725C1038.81 253.955 1039.81 259.36 1040.87 265.94H1057.81C1059.7 265.94 1060.64 268.29 1060.64 272.99C1060.64 277.69 1059.7 280.04 1057.81 280.04H1040.69V336.088L1043.51 356.004V356.18C1043.63 356.885 1043.63 357.355 1043.51 357.59C1042.93 358.53 1039.98 359 1034.69 359C1029.39 359 1026.22 357.943 1025.16 355.827L1016.86 339.084V280.04ZM1114.75 224.521V349.13C1114.75 353.83 1120.63 356.18 1132.4 356.18C1136.52 356.18 1138.81 355.357 1139.28 353.713C1139.4 353.008 1139.46 351.598 1139.46 349.482L1139.28 276.515L1174.06 349.659C1175.59 354.006 1180.18 356.18 1187.83 356.18C1191.94 356.18 1194.24 355.357 1194.71 353.713C1194.83 353.008 1194.89 351.656 1194.89 349.659V277.396L1192.06 224.345C1191.94 221.76 1191.24 220.056 1189.94 219.234C1188.65 218.411 1186.24 218 1182.71 218C1174.23 218 1170 220.115 1170 224.345L1171.06 298.194L1139.46 224.169C1138.28 222.289 1136.93 220.879 1135.4 219.939C1133.87 218.881 1132.58 218.294 1131.52 218.176C1130.57 218.059 1129.22 218 1127.46 218C1118.98 218 1114.75 220.174 1114.75 224.521ZM1251.01 347.896C1244.89 353.419 1239.42 356.18 1234.6 356.18C1229.89 356.18 1226.07 355.828 1223.12 355.123C1220.18 354.535 1217.53 353.184 1215.18 351.069C1212.83 348.836 1211.18 345.664 1210.24 341.551C1209.3 337.439 1208.83 331.975 1208.83 325.16C1208.83 315.643 1213.47 309.121 1222.77 305.596L1248.01 299.075C1247.9 291.437 1247.13 286.502 1245.72 284.27C1244.31 282.037 1241.25 280.921 1236.54 280.921C1231.83 280.921 1227.77 281.685 1224.36 283.212L1218.18 285.68H1218C1216.95 286.268 1216 285.798 1215.18 284.27C1213.06 279.805 1212 276.339 1212 273.871C1212 271.286 1212.18 269.876 1212.53 269.641C1213 269.289 1213.24 269.054 1213.24 268.936C1219.12 265.059 1226.71 263.12 1236.01 263.12C1245.42 263.12 1252.66 264.354 1257.72 266.821C1262.78 269.289 1266.43 273.812 1268.67 280.392C1271.02 286.855 1272.2 296.49 1272.2 309.298L1271.84 353.36C1271.84 354.065 1271.73 354.535 1271.49 354.77C1271.02 355.71 1268.78 356.18 1264.78 356.18C1257.49 356.18 1253.84 355.24 1253.84 353.36L1251.01 347.896ZM1228.42 325.513C1228.42 333.973 1230.89 338.438 1235.83 338.908C1239.25 338.908 1241.72 338.32 1243.25 337.145C1246.54 334.912 1248.19 326.57 1248.19 312.118C1242.07 312.94 1237.25 314.644 1233.71 317.229C1230.18 319.696 1228.42 322.458 1228.42 325.513ZM1336.9 230.69C1336.9 239.15 1341.14 243.38 1349.61 243.38C1358.08 243.38 1362.32 239.15 1362.32 230.69C1362.32 222.23 1358.08 218 1349.61 218C1341.14 218 1336.9 222.23 1336.9 230.69ZM1339.9 280.04V353.36C1339.9 354.065 1341.79 354.711 1345.55 355.299C1349.32 355.886 1353.14 356.18 1357.03 356.18C1360.91 356.18 1363.14 355.71 1363.73 354.77C1363.85 354.535 1363.91 354.065 1363.91 353.36V270.875C1363.91 267.585 1358.26 265.94 1346.96 265.94H1319.78C1318.72 259.36 1317.72 253.955 1316.78 249.725C1315.84 245.495 1314.84 243.38 1313.78 243.38C1309.78 243.38 1307.07 244.261 1305.66 246.024L1295.77 265.94L1281.65 268.76C1279.89 269.112 1279 271.815 1279 276.867C1279 277.69 1279.12 278.454 1279.36 279.159C1279.47 279.746 1280.24 280.04 1281.65 280.04H1295.77V339.084L1304.25 356.18C1305.07 358.06 1308.13 359 1313.43 359C1318.84 359 1321.84 358.53 1322.43 357.59C1322.55 357.355 1322.55 356.885 1322.43 356.18V356.004L1319.6 336.088V280.04H1339.9ZM1374.77 265.411C1374.77 263.884 1376.89 263.12 1381.13 263.12C1385.48 263.12 1389.48 263.414 1393.13 264.001C1396.89 264.589 1398.84 265.235 1398.95 265.94L1414.66 331.857L1428.43 265.94C1428.9 264.06 1430.79 263.12 1434.08 263.12C1437.38 263.12 1440.14 263.237 1442.38 263.472C1447.79 264.06 1450.38 264.883 1450.14 265.94L1449.97 266.292L1427.9 353.36C1427.43 355.24 1425.14 356.18 1421.02 356.18C1417.02 356.18 1412.72 355.886 1408.13 355.299C1403.66 354.711 1401.31 354.065 1401.07 353.36L1374.95 266.292V265.94C1374.83 265.705 1374.77 265.529 1374.77 265.411ZM1467.75 345.958C1472.69 352.773 1481.46 356.18 1494.05 356.18C1510.64 356.18 1521.35 355.24 1526.18 353.36C1528.06 352.89 1529 350.481 1529 346.134C1529 341.786 1528.71 339.025 1528.12 337.85C1527.65 336.675 1527 336.205 1526.18 336.44C1526.06 336.44 1525.88 336.499 1525.65 336.616C1520 338.144 1509.47 338.908 1494.05 338.908C1491.7 338.908 1489.99 338.438 1488.93 337.498C1487.17 335.618 1486.16 327.804 1485.93 314.056H1513.11C1517 314.056 1520.29 313.763 1523 313.175C1525.82 312.588 1527.23 311.941 1527.23 311.236V309.121C1527.23 296.784 1526.18 287.266 1524.06 280.569C1521.94 273.871 1518.59 269.289 1514 266.821C1509.52 264.354 1502.88 263.12 1494.05 263.12C1485.22 263.12 1478.52 264.354 1473.93 266.821C1469.45 269.171 1466.1 273.695 1463.86 280.392C1461.63 286.973 1460.51 296.607 1460.51 309.298C1460.51 326.923 1462.92 339.143 1467.75 345.958ZM1485.93 299.956V286.209C1485.93 284.094 1487.22 282.449 1489.81 281.274C1492.4 280.099 1495.7 279.511 1499.7 279.511C1501.93 279.511 1503.29 286.326 1503.76 299.956H1485.93ZM1576.46 548.651C1624.87 548.651 1657.67 559.454 1674.87 581.061C1692.48 602.268 1701.28 642.882 1701.28 702.902C1701.28 762.922 1694.28 805.136 1680.27 829.544C1666.67 853.552 1645.07 865.556 1615.47 865.556C1595.07 865.556 1570.66 863.155 1542.26 858.353L1528.46 855.952C1517.66 862.354 1497.26 865.556 1467.25 865.556V404.603C1467.25 398.201 1474.25 395 1488.25 395C1502.26 395 1513.86 396 1523.06 398.001C1532.26 399.602 1537.06 401.802 1537.46 404.603L1547.66 548.651H1576.46ZM1547.66 606.27V807.937H1605.27C1609.67 807.937 1612.27 799.534 1613.07 782.728C1614.27 765.522 1614.87 737.913 1614.87 699.901C1614.87 661.888 1612.07 636.88 1606.47 624.876C1601.27 612.472 1591.26 606.27 1576.46 606.27H1547.66ZM784.01 843.348V476.627H709.002C699.401 476.227 693.201 473.626 690.401 468.824C686.8 463.223 685 453.219 685 438.814C685 416.007 691.801 404.603 705.402 404.603H923.824C947.026 404.603 958.627 410.805 958.627 423.209C958.627 458.821 949.026 476.627 929.824 476.627L862.618 476.027L868.018 597.867L868.618 842.148C868.618 849.75 868.418 854.752 868.018 857.153C866.418 862.755 858.617 865.556 844.616 865.556C804.212 865.556 784.01 858.153 784.01 843.348ZM1037.93 865.556C1008.33 865.556 986.524 856.353 972.522 837.946C958.921 819.54 952.12 787.13 952.12 740.714V558.254C952.12 551.852 959.321 548.651 973.722 548.651C988.524 548.651 1002.93 549.651 1016.93 551.652C1030.93 553.652 1037.93 555.853 1037.93 558.254L1038.53 740.714C1038.53 785.529 1041.73 807.937 1048.13 807.937C1062.53 807.937 1081.73 800.734 1105.74 786.329V558.254C1105.74 551.852 1112.94 548.651 1127.34 548.651C1142.14 548.651 1156.54 549.651 1170.54 551.652C1184.94 553.652 1192.14 555.853 1192.14 558.254V855.952C1192.14 858.353 1191.74 859.954 1190.94 860.754C1189.34 863.955 1178.94 865.556 1159.74 865.556C1140.94 865.556 1129.34 862.354 1124.94 855.952L1112.34 837.346C1084.33 856.152 1059.53 865.556 1037.93 865.556ZM1381.35 548.651C1370.94 548.651 1349.34 559.854 1316.54 582.262L1304.54 559.454V558.254C1301.74 551.852 1291.34 548.651 1273.33 548.651C1255.33 548.651 1246.33 551.852 1246.33 558.254V855.952C1246.33 858.353 1251.93 860.554 1263.13 862.555C1274.74 864.555 1287.14 865.556 1300.34 865.556C1313.54 865.556 1320.94 863.955 1322.54 860.754C1323.34 859.954 1323.74 858.353 1323.74 855.952V635.079C1344.14 622.675 1357.74 616.473 1364.54 616.473C1371.34 616.473 1378.95 618.674 1387.35 623.075C1395.75 627.477 1402.55 629.678 1407.75 629.678C1413.35 629.678 1417.75 626.477 1420.95 620.074C1424.15 613.672 1428.75 597.667 1434.75 572.059L1429.35 566.657C1425.35 562.655 1418.95 558.654 1410.15 554.653C1401.75 550.651 1392.15 548.651 1381.35 548.651ZM1744.58 606.87C1736.98 629.277 1733.18 662.288 1733.18 705.903C1733.18 765.923 1741.78 807.536 1758.98 830.744C1776.19 853.952 1807.59 865.556 1853.19 865.556C1898.8 865.556 1930.2 853.952 1947.4 830.744C1964.61 807.536 1973.21 765.923 1973.21 705.903C1973.21 662.288 1969.41 629.277 1961.8 606.87C1954.2 584.463 1942.2 569.258 1925.8 561.255C1909.4 552.852 1885.2 548.651 1853.19 548.651C1821.19 548.651 1796.99 552.852 1780.59 561.255C1764.19 569.258 1752.18 584.463 1744.58 606.87ZM1833.99 806.736C1821.19 806.736 1814.79 773.125 1814.79 705.903C1814.79 661.488 1817.59 633.879 1823.19 623.075C1828.79 611.872 1843.59 606.27 1867.6 606.27C1880.4 606.27 1886.8 639.481 1886.8 705.903C1886.8 739.114 1885.2 764.122 1882 780.928C1880.4 789.33 1877.4 795.132 1873 798.333C1864.6 803.935 1851.59 806.736 1833.99 806.736ZM2023.99 812.138C2015.59 801.734 2011.39 793.932 2011.39 788.73C2011.39 783.128 2015.99 775.726 2025.19 766.523C2034.79 756.92 2040.99 751.718 2043.79 750.918C2046.99 750.117 2049.99 749.717 2052.79 749.717C2055.59 749.717 2060.19 751.518 2066.59 755.119C2096.2 778.327 2122.2 789.931 2144.6 789.931C2167 789.931 2181.61 784.729 2188.41 774.325C2195.21 763.922 2198.61 750.317 2198.61 733.512C2198.61 716.706 2192.61 703.102 2180.61 692.698C2168.6 682.295 2148.8 669.691 2121.2 654.886C2094 640.081 2070.2 620.875 2049.79 597.267C2029.39 573.659 2019.19 549.251 2019.19 524.043C2019.19 479.228 2030.79 446.617 2053.99 426.21C2077.6 405.403 2112 395 2157.2 395C2184.81 395 2211.81 401.602 2238.21 414.807C2252.21 420.408 2258.81 426.21 2258.01 432.212C2257.61 434.613 2257.21 438.214 2256.81 443.016C2249.21 464.623 2243.41 477.027 2239.41 480.228C2238.21 481.028 2235.41 481.429 2231.01 481.429C2227.01 481.429 2216.01 478.228 2198.01 471.825C2180.01 465.023 2164.6 461.622 2151.8 461.622C2139.4 461.622 2129 466.023 2120.6 474.826C2112.2 483.629 2108 496.033 2108 512.039C2108 528.044 2115.2 542.649 2129.6 555.853C2144 568.657 2166.2 582.062 2196.21 596.066C2227.81 612.472 2251.41 629.478 2267.01 647.083C2283.02 664.689 2291.02 688.297 2291.02 717.907C2291.02 816.339 2249.41 865.556 2166.2 865.556C2104.2 865.556 2056.79 847.75 2023.99 812.138ZM2316.5 606.27H2364.5V807.336L2392.7 864.355C2396.3 871.558 2407.11 875.159 2425.11 875.159C2443.11 875.159 2453.11 873.558 2455.11 870.357C2455.51 869.557 2455.51 867.956 2455.11 865.556V864.955L2445.51 797.133V606.27H2503.71C2510.12 606.27 2513.32 598.267 2513.32 582.262C2513.32 566.257 2510.12 558.254 2503.71 558.254H2446.11C2442.51 535.847 2439.11 517.44 2435.91 503.036C2432.71 488.631 2429.31 481.429 2425.71 481.429C2412.11 481.429 2402.9 484.43 2398.1 490.432L2364.5 558.254L2316.5 567.857C2310.5 569.058 2307.5 578.261 2307.5 595.466C2307.5 598.267 2307.9 600.868 2308.7 603.269C2309.1 605.27 2311.7 606.27 2316.5 606.27ZM2523.47 556.453C2523.47 551.252 2530.67 548.651 2545.07 548.651C2559.87 548.651 2573.47 549.651 2585.87 551.652C2598.67 553.652 2605.27 555.853 2605.67 558.254L2659.08 763.522L2705.88 558.254C2707.48 551.852 2713.88 548.651 2725.09 548.651C2747.09 548.651 2761.69 549.851 2768.89 552.252C2776.09 554.653 2779.69 556.453 2779.69 557.654L2659.68 990.397C2658.08 996.799 2651.68 1000 2640.48 1000C2629.28 1000 2620.07 999.6 2612.87 998.8C2597.27 996.799 2589.87 993.998 2590.67 990.397C2590.67 989.196 2590.87 988.196 2591.27 987.396L2621.88 855.952L2524.07 559.454V558.254C2523.67 557.454 2523.47 556.854 2523.47 556.453ZM2893.68 860.754C2894.48 859.954 2894.88 858.353 2894.88 855.952V597.267L2884.08 404.603C2883.68 401.802 2878.88 399.602 2869.68 398.001C2860.48 396 2848.87 395 2834.87 395C2820.87 395 2813.87 398.201 2813.87 404.603V855.952C2813.87 858.353 2820.07 860.554 2832.47 862.555C2845.27 864.555 2858.28 865.556 2871.48 865.556C2884.68 865.556 2892.08 863.955 2893.68 860.754ZM3056.1 865.556C3013.3 865.556 2983.5 853.952 2966.69 830.744C2950.29 807.536 2942.09 765.923 2942.09 705.903C2942.09 662.689 2945.89 629.878 2953.49 607.47C2961.09 584.663 2972.49 569.258 2987.7 561.255C3003.3 552.852 3026.1 548.651 3056.1 548.651C3086.11 548.651 3108.71 552.852 3123.91 561.255C3139.51 569.658 3150.91 585.263 3158.11 608.07C3165.31 630.878 3168.91 663.289 3168.91 705.303V712.505C3168.91 714.906 3164.11 717.107 3154.51 719.107C3145.31 721.108 3134.11 722.108 3120.91 722.108H3028.5C3029.3 768.924 3032.7 795.532 3038.7 801.935C3042.3 805.136 3048.1 806.736 3056.1 806.736C3108.51 806.736 3144.31 804.135 3163.51 798.934C3164.31 798.533 3164.91 798.333 3165.31 798.333C3168.11 797.533 3170.31 799.134 3171.91 803.135C3173.91 807.136 3174.91 816.539 3174.91 831.344C3174.91 846.149 3171.71 854.352 3165.31 855.952C3148.91 862.354 3112.51 865.556 3056.1 865.556ZM3028.5 627.277V674.092H3089.11C3087.51 627.677 3082.91 604.469 3075.3 604.469C3061.7 604.469 3050.5 606.47 3041.7 610.471C3032.9 614.473 3028.5 620.074 3028.5 627.277ZM3382.6 627.877L3386.2 629.077C3391.8 629.077 3396.6 617.474 3400.6 594.266C3401.8 585.063 3402 579.061 3401.2 576.26C3400.8 573.459 3399 571.058 3395.8 569.058H3395.2C3388 563.056 3376 557.854 3359.19 553.452C3346.79 550.251 3333.79 548.651 3320.19 548.651C3284.19 548.651 3257.78 555.853 3240.98 570.258C3224.58 584.663 3216.38 607.87 3216.38 639.881C3216.38 658.287 3223.38 675.093 3237.38 690.298C3251.78 705.103 3269.18 717.507 3289.59 727.51C3290.79 727.91 3291.99 728.51 3293.19 729.311L3296.79 731.111C3297.59 731.511 3302.59 734.112 3311.79 738.914C3321.39 743.315 3329.39 747.917 3335.79 752.718C3342.19 757.52 3345.39 763.722 3345.39 771.324C3345.39 778.927 3342.59 785.929 3336.99 792.331C3331.39 798.733 3322.99 801.935 3311.79 801.935C3291.79 801.935 3271.18 793.532 3249.98 776.726C3248.38 775.126 3246.78 774.325 3245.18 774.325C3239.98 774.325 3232.98 779.727 3224.18 790.531C3215.38 800.934 3210.58 807.336 3209.78 809.737C3209.38 812.138 3209.18 814.139 3209.18 815.739C3209.18 817.34 3209.98 818.54 3211.58 819.34C3223.18 834.145 3237.58 845.549 3254.78 853.552C3271.98 861.554 3295.59 865.556 3325.59 865.556C3355.99 865.556 3380 855.552 3397.6 835.546C3415.2 815.139 3424 788.33 3424 755.119C3424 739.914 3416.6 724.509 3401.8 708.904C3387.4 693.299 3365.19 679.094 3335.19 666.29C3326.79 662.288 3320.39 659.287 3315.99 657.287C3311.59 654.886 3305.79 651.685 3298.59 647.684C3291.79 643.682 3288.39 638.48 3288.39 632.078C3288.39 615.673 3297.39 607.07 3315.39 606.27C3327.79 606.27 3342.59 609.671 3359.79 616.473L3382.6 627.877Z" fill="url(#paint1_linear)"/>
</g>
<defs>
<filter id="filter0_d" x="683" y="218" width="2747" height="790" filterUnits="userSpaceOnUse" color-interpolation-filters="sRGB">
<feFlood flood-opacity="0" result="BackgroundImageFix"/>
<feColorMatrix in="SourceAlpha" type="matrix" values="0 0 0 0 0 0 0 0 0 0 0 0 0 0 0 0 0 0 127 0"/>
<feOffset dx="2" dy="4"/>
<feGaussianBlur stdDeviation="2"/>
<feColorMatrix type="matrix" values="0 0 0 0 0 0 0 0 0 0 0 0 0 0 0 0 0 0 0.25 0"/>
<feBlend mode="normal" in2="BackgroundImageFix" result="effect1_dropShadow"/>
<feBlend mode="normal" in="SourceGraphic" in2="effect1_dropShadow" result="shape"/>
</filter>
<linearGradient id="paint0_linear" x1="28.1471" y1="57.6177" x2="1166.52" y2="861.613" gradientUnits="userSpaceOnUse">
<stop stop-color="#A556C5"/>
<stop offset="1" stop-color="#A556C5" stop-opacity="0.53"/>
</linearGradient>
<linearGradient id="paint1_linear" x1="554" y1="199" x2="3440.5" y2="914" gradientUnits="userSpaceOnUse">
<stop stop-color="currentColor"/>
<stop offset="1" stop-opacity="0.75" stop-color="currentColor"/>
</linearGradient>
</defs>
</svg>
